<?xml version="1.0" encoding="UTF-8"?>
<svg version="1.1" xmlns="http://www.w3.org/2000/svg" width="332" height="152">
<path d="M0 0 C109.56 0 219.12 0 332 0 C332 50.16 332 100.32 332 152 C222.44 152 112.88 152 0 152 C0 101.84 0 51.68 0 0 Z " fill="#FDFDFD" transform="translate(0,0)"/>
<path d="M0 0 C0.04939115 4.09338652 0.08571501 8.18665798 0.10986328 12.28027344 C0.11992877 13.67320781 0.13358234 15.06612102 0.15087891 16.45898438 C0.1751022 18.4595436 0.18540814 20.46025615 0.1953125 22.4609375 C0.20578613 23.66540527 0.21625977 24.86987305 0.22705078 26.11083984 C0 29 0 29 -2 31 C-1.01 31.99 -1.01 31.99 0 33 C0.17495606 35.50920846 0.23169569 37.90624941 0.1953125 40.4140625 C0.1924826 41.14370209 0.18965271 41.87334167 0.18673706 42.62509155 C0.17553002 44.95856028 0.1504251 47.29164703 0.125 49.625 C0.11497085 51.20572363 0.10584489 52.78645327 0.09765625 54.3671875 C0.07558905 58.24493914 0.04105615 62.12240478 0 66 C-1.485 66.495 -1.485 66.495 -3 67 C-3 67.66 -3 68.32 -3 69 C-1.515 69.495 -1.515 69.495 0 70 C0.0988803 74.6447121 0.1714715 79.28881173 0.21972656 83.93432617 C0.23984186 85.51451285 0.26713804 87.09462509 0.30175781 88.67456055 C0.35028343 90.94598748 0.37296809 93.21643058 0.390625 95.48828125 C0.41127014 96.19463211 0.43191528 96.90098297 0.45318604 97.6287384 C0.45468264 100.90040023 0.45505278 102.54109381 -1.90283203 104.91894531 C-5.78050295 106.91781922 -9.7856881 107.9137833 -14 109 C-15.15371094 109.309375 -16.30742188 109.61875 -17.49609375 109.9375 C-27.87144404 112.55650793 -38.39423194 113.95441026 -49 115.25 C-49.71560089 115.33885468 -50.43120178 115.42770935 -51.16848755 115.51925659 C-53.25731273 115.77587556 -55.34704791 116.02264707 -57.4375 116.265625 C-59.26087891 116.47880371 -59.26087891 116.47880371 -61.12109375 116.69628906 C-65.73438389 117.05750085 -70.37259037 117 -75 117 C-75 107.43 -75 97.86 -75 88 C-66.5625 87.5625 -66.5625 87.5625 -63.90063477 87.43188477 C-60.14029267 87.57312523 -60.14029267 87.57312523 -57 86 C-58.04800781 85.73445313 -59.09601562 85.46890625 -60.17578125 85.1953125 C-61.5547648 84.83884056 -62.93366684 84.48205321 -64.3125 84.125 C-65.00279297 83.95097656 -65.69308594 83.77695313 -66.40429688 83.59765625 C-69.71875562 82.73301484 -72.12278553 81.91814298 -75 80 C-75.34057617 77.11083984 -75.34057617 77.11083984 -75.29296875 73.4609375 C-75.28330078 72.15898438 -75.27363281 70.85703125 -75.26367188 69.515625 C-75.23860388 68.13541077 -75.21320902 66.75520244 -75.1875 65.375 C-75.17245517 63.98699337 -75.15876641 62.59897133 -75.14648438 61.2109375 C-75.11102801 57.80712611 -75.05721974 54.4035151 -75 51 C-65.595 50.01 -65.595 50.01 -56 49 C-58.206875 48.38125 -60.41375 47.7625 -62.6875 47.125 C-66.93964285 45.93281042 -70.88808764 44.64476495 -75 43 C-75 33.1 -75 23.2 -75 13 C-70.813125 12.773125 -66.62625 12.54625 -62.3125 12.3125 C-41.94315125 10.99966367 -18.9522878 0 0 0 Z " fill="#DC3322" transform="translate(92,11)"/>
<path d="M0 0 C0 9.57 0 19.14 0 29 C-23.48959286 39.43981905 -49.61773905 41.34463516 -75 43 C-75 33.1 -75 23.2 -75 13 C-70.813125 12.773125 -66.62625 12.54625 -62.3125 12.3125 C-41.94315125 10.99966367 -18.9522878 0 0 0 Z " fill="#DD3422" transform="translate(92,11)"/>
<path d="M0 0 C0.09893453 4.07496103 0.17149694 8.14945656 0.21972656 12.2253418 C0.23983275 13.61153338 0.26712245 14.99764025 0.30175781 16.38354492 C0.35031225 18.37641906 0.37083972 20.36991389 0.390625 22.36328125 C0.4220459 24.16212769 0.4220459 24.16212769 0.45410156 25.99731445 C0 29 0 29 -1.90283203 30.86425781 C-5.75242359 32.94904244 -9.77488309 33.91099837 -14 35 C-15.15371094 35.309375 -16.30742188 35.61875 -17.49609375 35.9375 C-27.87144404 38.55650793 -38.39423194 39.95441026 -49 41.25 C-49.71560089 41.33885468 -50.43120178 41.42770935 -51.16848755 41.51925659 C-53.25731273 41.77587556 -55.34704791 42.02264707 -57.4375 42.265625 C-59.26087891 42.47880371 -59.26087891 42.47880371 -61.12109375 42.69628906 C-65.73438389 43.05750085 -70.37259037 43 -75 43 C-75 33.43 -75 23.86 -75 14 C-72.504375 13.87625 -70.00875 13.7525 -67.4375 13.625 C-59.2221176 13.16411784 -51.13587732 12.24788431 -43 11 C-42.29762207 10.89429687 -41.59524414 10.78859375 -40.87158203 10.6796875 C-32.46465226 9.40259152 -24.11208777 7.91843337 -15.8125 6.0625 C-14.78890381 5.84424561 -14.78890381 5.84424561 -13.74462891 5.62158203 C-9.77967409 4.69528233 -3.63537009 0 0 0 Z " fill="#DD3322" transform="translate(92,85)"/>
<path d="M0 0 C4.30383071 4.41142648 5.11865203 7.20826484 5.2109375 13.25 C5.23929687 14.4978125 5.26765625 15.745625 5.296875 17.03125 C5.34895553 19.67694113 5.39322752 22.32279751 5.4296875 24.96875 C5.460625 26.2165625 5.4915625 27.464375 5.5234375 28.75 C5.5531665 30.47476563 5.5531665 30.47476563 5.58349609 32.234375 C5.72094238 33.14703125 5.85838867 34.0596875 6 35 C6.99 35.66 7.98 36.32 9 37 C9.29296875 39.1640625 9.29296875 39.1640625 9.1875 41.625 C9.16042969 42.44226563 9.13335937 43.25953125 9.10546875 44.1015625 C9.05326172 45.04128906 9.05326172 45.04128906 9 46 C1.73846154 46.49230769 1.73846154 46.49230769 -2 44 C-2.66 43.34 -3.32 42.68 -4 42 C-5.010625 42.66 -6.02125 43.32 -7.0625 44 C-13.22815607 47.08834293 -20.29032727 46.99402559 -27 46 C-31.71301973 43.35448421 -34.56348086 40.87303828 -37 36 C-37.85060457 31.66018078 -37.3540925 28.7365124 -35.4375 24.75 C-30.29138092 18.94412206 -24.5845663 17.35822577 -17.1875 16.3125 C-11.93997109 15.68356318 -11.93997109 15.68356318 -7 14 C-6.74969023 11.58380177 -6.74969023 11.58380177 -7 9 C-10.73957908 6.50694728 -13.67078913 6.23383381 -18 7 C-21.17488641 8.41051455 -24.08717232 10.11205613 -27 12 C-28.98 10.35 -30.96 8.7 -33 7 C-24.87043696 -3.86919601 -12.22063782 -6.45330979 0 0 Z " fill="#380F0B" transform="translate(310,54)"/>
<path d="M0 0 C4.30258306 4.41014764 5.12592696 7.27939782 5.31640625 13.3203125 C5.35830078 14.57714844 5.40019531 15.83398438 5.44335938 17.12890625 C5.48267578 18.44761719 5.52199219 19.76632813 5.5625 21.125 C5.60569512 22.46485751 5.64930973 23.80470156 5.69335938 25.14453125 C5.79970981 28.42957815 5.90173808 31.71470281 6 35 C6.99 35.33 7.98 35.66 9 36 C9 39.3 9 42.6 9 46 C1.73846154 46.49230769 1.73846154 46.49230769 -2 44 C-2.66 43.34 -3.32 42.68 -4 42 C-4.825 42.66 -5.65 43.32 -6.5 44 C-10.51469346 46.30824265 -14.53259154 46.45040246 -19.0625 46.5 C-19.74699219 46.51804688 -20.43148437 46.53609375 -21.13671875 46.5546875 C-27.09391233 46.48568526 -30.55612759 44.27532948 -34.8125 40.3125 C-36.96043762 36.12967412 -37.75830748 31.57121478 -36.41015625 27 C-34.08725615 22.37413886 -30.72069634 20.06537583 -26 18 C-23.08915699 17.20337282 -20.17318903 16.73458787 -17.1875 16.3125 C-11.93997109 15.68356318 -11.93997109 15.68356318 -7 14 C-6.74969023 11.58380177 -6.74969023 11.58380177 -7 9 C-10.69179629 6.53880247 -13.7126261 6.30035265 -18 7 C-21.21829104 8.92293518 -21.21829104 8.92293518 -24 11 C-28 11 -28 11 -30.75 8.5 C-31.4925 7.675 -32.235 6.85 -33 6 C-23.39918204 -3.11346679 -12.44298694 -6.45003813 0 0 Z " fill="#390F0C" transform="translate(238,54)"/>
<path d="M0 0 C1.37109375 1.37109375 1.37109375 1.37109375 3.18359375 3.62109375 C1.79026801 6.98829762 0.20466515 8.60704615 -2.81640625 10.62109375 C-6.81640625 8.62109375 -6.81640625 8.62109375 -8.640625 7.5625 C-11.21167946 6.45006889 -13.08778471 6.38728555 -15.87890625 6.43359375 C-16.73613281 6.44003906 -17.59335938 6.44648437 -18.4765625 6.453125 C-20.97118593 6.53519341 -20.97118593 6.53519341 -23.81640625 7.62109375 C-24.23155705 10.68283088 -24.48909275 12.67119802 -23.81640625 15.62109375 C-20.04860991 19.81133998 -13.74745553 21.51083589 -8.69140625 23.62109375 C-2.20940696 26.33868062 2.03952967 28.47646644 6.05859375 34.37109375 C8.25916022 40.72828578 7.78901004 46.73066439 5.15625 52.90234375 C2.41662553 57.74344724 -2.7248724 59.93901222 -7.81640625 61.62109375 C-17.20386356 62.76940657 -26.03877722 62.50209869 -33.81640625 56.62109375 C-36.19018226 54.51524889 -38.39993675 52.48607958 -39.81640625 49.62109375 C-39.60546875 47.5234375 -39.60546875 47.5234375 -38.81640625 45.62109375 C-36.50390625 43.74609375 -36.50390625 43.74609375 -33.81640625 42.62109375 C-29.93988447 43.62148647 -26.81498961 47.07881655 -23.81640625 49.62109375 C-21.24307725 50.90775825 -19.31417587 50.78933926 -16.44140625 50.80859375 C-15.48492187 50.82277344 -14.5284375 50.83695313 -13.54296875 50.8515625 C-10.75358657 50.61578378 -9.14833076 50.13844189 -6.81640625 48.62109375 C-5.22701278 45.44230681 -5.40063914 43.12541655 -5.81640625 39.62109375 C-9.87540542 35.58684458 -13.85729634 33.55503733 -19.25390625 31.68359375 C-25.68582999 29.28269768 -31.12967009 26.84046978 -34.953125 20.8359375 C-36.84160818 15.99082455 -36.52759836 10.69838699 -35.81640625 5.62109375 C-33.46178561 0.98272734 -29.51017561 -2.21255116 -24.81640625 -4.37890625 C-16.43319252 -6.80562601 -7.02783906 -5.33511223 0 0 Z " fill="#390F0C" transform="translate(144.81640625,38.37890625)"/>
<path d="M0 0 C3.0625 2.1875 3.0625 2.1875 5 4 C3.50902342 7.7952131 1.24299151 9.61042731 -2 12 C-2.99 11.34 -3.98 10.68 -5 10 C-9.27159051 7.5751173 -12.1238087 7.45820097 -17 8 C-21.17905855 9.57700323 -23.70772617 11.13932829 -26 15 C-27.46156345 19.38469035 -27.91773053 23.66478468 -26.2109375 28.0078125 C-24.47025684 31.18355813 -23.034916 32.97672267 -20 35 C-16.93505994 35.35636578 -16.93505994 35.35636578 -13.5625 35.3125 C-12.42941406 35.32925781 -11.29632813 35.34601563 -10.12890625 35.36328125 C-6.77674287 34.97407876 -5.4338103 34.26637371 -3 32 C0.7952131 33.49097658 2.61042731 35.75700849 5 39 C-2.27796087 45.43168635 -8.35425418 46.7233788 -17.96875 46.44140625 C-24.50042461 45.95458284 -29.21412205 42.95792741 -33.64453125 38.25390625 C-38.21472045 32.34031849 -39.53594728 26.27242176 -39.375 18.87890625 C-38.52652171 12.36506769 -35.44275554 6.97786963 -30.625 2.5625 C-21.31132671 -4.49270745 -10.46741087 -5.0134493 0 0 Z " fill="#380F0C" transform="translate(194,54)"/>
<path d="M0 0 C3.3 0 6.6 0 10 0 C10.01458252 1.55952393 10.02916504 3.11904785 10.04418945 4.72583008 C10.10207852 10.50145621 10.17931217 16.27668861 10.26245117 22.05200195 C10.29574471 24.55356465 10.32376268 27.05520327 10.34643555 29.55688477 C10.3798996 33.14893002 10.43221243 36.74027666 10.48828125 40.33203125 C10.49467117 41.45398392 10.5010611 42.57593658 10.50764465 43.73188782 C10.53733589 45.29316658 10.53733589 45.29316658 10.56762695 46.88598633 C10.57873001 47.80309891 10.58983307 48.72021149 10.60127258 49.66511536 C11.07641628 52.44748166 11.75999449 53.33005122 14 55 C16.60611077 55.72197162 16.60611077 55.72197162 19 56 C19 58.97 19 61.94 19 65 C8.11593304 65.6249225 8.11593304 65.6249225 3.875 63.25 C0.55955085 59.27146102 -0.24998218 56.49597214 -0.22705078 51.31347656 C-0.22689972 50.17259583 -0.22674866 49.03171509 -0.22659302 47.85626221 C-0.21627045 46.63010193 -0.20594788 45.40394165 -0.1953125 44.140625 C-0.1924826 42.88111023 -0.18965271 41.62159546 -0.18673706 40.32391357 C-0.17744121 36.98326098 -0.15948583 33.64288331 -0.1373291 30.30230713 C-0.11683208 26.89036428 -0.10772712 23.47839298 -0.09765625 20.06640625 C-0.07559907 13.37752832 -0.04212367 6.68878003 0 0 Z " fill="#350A07" transform="translate(251,35)"/>
<path d="M0 0 C0.495 2.475 0.495 2.475 1 5 C-5.80254305 9.95036549 -12.3194705 11.59431068 -20.5 13.25 C-21.68464844 13.50523438 -22.86929688 13.76046875 -24.08984375 14.0234375 C-40.17177152 17.4298659 -55.3073508 18.81838414 -71 13 C-71.33 12.34 -71.66 11.68 -72 11 C-68.51643167 9.99074189 -65.10537681 9.68307259 -61.49609375 9.38671875 C-60.20687012 9.27529541 -58.91764648 9.16387207 -57.58935547 9.04907227 C-56.91112732 8.99051056 -56.23289917 8.93194885 -55.53411865 8.87161255 C-39.09633297 7.42814422 -23.27594498 5.17708338 -7.6640625 -0.36328125 C-4.72241323 -1.06634405 -2.88509072 -0.81307102 0 0 Z " fill="#3A0D09" transform="translate(91,80)"/>
<path d="M0 0 C0.99 0.99 0.99 0.99 2 2 C1.9921875 4.4375 1.9921875 4.4375 1 7 C-7.26625304 12.52855509 -18.17592374 14.06654885 -27.75 15.875 C-28.88550293 16.09027344 -30.02100586 16.30554688 -31.19091797 16.52734375 C-41.27484581 18.29969714 -50.51566161 18.88705175 -60.4375 16.125 C-61.11748047 15.95097656 -61.79746094 15.77695312 -62.49804688 15.59765625 C-65.86348038 14.70941867 -68.96680917 13.72216973 -72 12 C-72 11.67 -72 11.34 -72 11 C-71.39978027 10.96559814 -70.79956055 10.93119629 -70.18115234 10.89575195 C-57.07944036 10.10077507 -44.13752528 8.74884295 -31.1875 6.625 C-29.95628418 6.42817627 -28.72506836 6.23135254 -27.45654297 6.02856445 C-20.56920138 4.85328047 -14.16163067 3.23554275 -7.61450195 0.78271484 C-4.88756661 -0.03365967 -2.82753369 -0.29655432 0 0 Z " fill="#3A0D09" transform="translate(90,42)"/>
<path d="M0 0 C0.62589928 8.13669065 0.62589928 8.13669065 -1.8125 11.5 C-5.18942085 13.81560287 -7.99984768 14.17856871 -12 14.25 C-13.299375 14.28867188 -13.299375 14.28867188 -14.625 14.328125 C-17 14 -17 14 -18.78515625 12.640625 C-20 11 -20 11 -20.4375 8.5 C-20 6 -20 6 -18.38671875 4.4140625 C-15.37304615 2.6285478 -12.84170033 2.30540298 -9.375 1.875 C-6.42539583 1.49718553 -2.78046731 0 0 0 Z " fill="#F6F5F5" transform="translate(304,77)"/>
<path d="M0 0 C0.62589928 8.13669065 0.62589928 8.13669065 -1.8125 11.5 C-5.18942085 13.81560287 -7.99984768 14.17856871 -12 14.25 C-13.299375 14.28867188 -13.299375 14.28867188 -14.625 14.328125 C-17 14 -17 14 -18.80859375 12.671875 C-20 11 -20 11 -20.0625 8 C-19 5 -19 5 -16.5625 3.1875 C-12.69901646 1.89967215 -9.21767332 1.46839739 -5.171875 1.2109375 C-3.24999329 1.02427992 -1.82278321 0 0 0 Z " fill="#F7F6F6" transform="translate(232,77)"/>
<path d="M0 0 C8.57142857 -0.28571429 8.57142857 -0.28571429 12 2 C12 2.66 12 3.32 12 4 C6.06 2.515 6.06 2.515 0 1 C0 0.67 0 0.34 0 0 Z " fill="#482422" transform="translate(20,92)"/>
<path d="M0 0 C-1.49097658 3.7952131 -3.75700849 5.61042731 -7 8 C-7 5 -7 5 -4.625 2.3125 C-2 0 -2 0 0 0 Z " fill="#3E1513" transform="translate(167,55)"/>
</svg>
